<?xml version="1.0" standalone="no"?><!DOCTYPE svg><svg t="1598431662613" class="icon" viewBox="0 0 1024 1024" version="1.1" xmlns="http://www.w3.org/2000/svg" p-id="5729" xmlns:xlink="http://www.w3.org/1999/xlink" width="200" height="200"><defs><style type="text/css"></style></defs><path d="M513.170286 76.331886L512 76.302629c-258.545371 0-468.114286 209.568914-468.114286 468.114285 0 258.516114 209.568914 468.114286 468.114286 468.114286s468.114286-209.598171 468.114286-468.114286c0-130.194286-53.423543-251.874743-146.0224-339.675428a29.257143 29.257143 0 0 0-40.257829 42.422857A408.283429 408.283429 0 0 1 921.6 544.416914c0 226.216229-183.383771 409.6-409.6 409.6s-409.6-183.383771-409.6-409.6 183.383771-409.6 409.6-409.6h1.170286V222.939429l200.674743-111.469715L513.141029 0v76.331886z" p-id="5730" fill="#ffffff"></path></svg>